<svg width="100" height="100" viewBox="0 0 100 100" fill="none" xmlns="http://www.w3.org/2000/svg">
<path d="M84.375 12.5H3.125V75H84.375V12.5ZM78.125 68.75H9.375V18.75H78.125V68.75Z" fill="#FFD550"/>
<path d="M90.625 28.125V81.25H18.75V87.5H96.875V28.125H90.625Z" fill="#FFD550"/>
<path d="M43.75 59.0744C51.5039 59.0744 57.8125 52.2117 57.8125 43.7763C57.8125 35.341 51.5039 28.4783 43.75 28.4783C35.9961 28.4783 29.6875 35.3408 29.6875 43.7763C29.6875 52.2119 35.9961 59.0744 43.75 59.0744ZM43.75 34.7283C48.0578 34.7283 51.5625 38.7873 51.5625 43.7763C51.5625 48.7654 48.0578 52.8244 43.75 52.8244C39.4422 52.8244 35.9375 48.7654 35.9375 43.7763C35.9375 38.7873 39.4422 34.7283 43.75 34.7283Z" fill="#FFD550"/>
<path d="M15.625 26.5625H21.875V60.9375H15.625V26.5625Z" fill="#FFD550"/>
<path d="M65.625 26.5625H71.875V60.9375H65.625V26.5625Z" fill="#FFD550"/>
</svg>
