<svg width="34" height="34" viewBox="0 0 34 34" fill="none" xmlns="http://www.w3.org/2000/svg">
<path d="M22.218 0H11.7811C2.25684 0 -0.000976562 2.25781 -0.000976562 11.7821V22.219C-0.000976562 31.7432 2.25684 34.0011 11.7811 34.0011H22.218C31.7423 34.0011 34.0001 31.7432 34.0001 22.219V11.7821C34.0001 2.25781 31.72 0 22.218 0ZM27.4477 24.2547H24.9795C24.0445 24.2547 23.7565 23.5131 22.0746 21.8089C20.6136 20.3926 19.9666 20.2045 19.6064 20.2045C19.0975 20.2045 18.953 20.3479 18.953 21.046V23.2762C18.953 23.8744 18.7649 24.2335 17.1818 24.2335C14.5638 24.2335 11.6589 22.6504 9.62209 19.7009C6.5504 15.3786 5.70996 12.1412 5.70996 11.4718C5.70996 11.1116 5.8534 10.7748 6.54509 10.7748H9.01859C9.6444 10.7748 9.8824 11.0627 10.1257 11.7321C11.3486 15.2628 13.3855 18.3557 14.2259 18.3557C14.5361 18.3557 14.6796 18.2123 14.6796 17.4207V13.7743C14.585 12.0923 13.7 11.9478 13.7 11.3507C13.7 11.0627 13.938 10.7748 14.3194 10.7748H18.2092C18.7352 10.7748 18.9285 11.0627 18.9285 11.6822V16.6016C18.9285 17.1328 19.1665 17.3209 19.31 17.3209C19.6202 17.3209 19.8858 17.1328 20.4606 16.5569C22.2372 14.5648 23.51 11.4931 23.51 11.4931C23.6758 11.1329 23.9637 10.7961 24.5895 10.7961H27.063C27.8047 10.7961 27.9704 11.1775 27.8047 11.7088C27.4944 13.1474 24.4673 17.4197 24.4673 17.4197C24.207 17.8511 24.1072 18.0391 24.4673 18.5204C24.733 18.8806 25.5968 19.6276 26.1716 20.2969C27.2288 21.4976 28.0416 22.5048 28.2583 23.2018C28.5017 23.8935 28.1425 24.2537 27.4445 24.2537L27.4477 24.2547Z" fill="#FFD550"/>
</svg>
